HIERARCHY
ROOT Hips
{
	OFFSET 0.000000 0.000000 0.000000
	CHANNELS 6 Xposition Yposition Zposition Zrotation Yrotation Xrotation 
	JOINT LHipJoint
	{
		OFFSET 0.000000 0.000000 0.000000
		CHANNELS 3 Zrotation Yrotation Xrotation
		JOINT LeftUpLeg
		{
			OFFSET 1.363060 -1.794630 0.839290
			CHANNELS 3 Zrotation Yrotation Xrotation
			JOINT LeftLeg
			{
				OFFSET 2.448110 -6.726130 0.000000
				CHANNELS 3 Zrotation Yrotation Xrotation
				JOINT LeftFoot
				{
					OFFSET 2.562200 -7.039590 0.000000
					CHANNELS 3 Zrotation Yrotation Xrotation
					JOINT LeftToeBase
					{
						OFFSET 0.157640 -0.433110 2.322550
						CHANNELS 3 Zrotation Yrotation Xrotation
						End Site
						{
							OFFSET 0.000000 0.000000 0.000000
						}
					}
				}
			}
		}
	}
	JOINT RHipJoint
	{
		OFFSET 0.000000 0.000000 0.000000
		CHANNELS 3 Zrotation Yrotation Xrotation
		JOINT RightUpLeg
		{
			OFFSET -1.305520 -1.794630 0.839290
			CHANNELS 3 Zrotation Yrotation Xrotation
			JOINT RightLeg
			{
				OFFSET -2.542530 -6.985550 0.000000
				CHANNELS 3 Zrotation Yrotation Xrotation
				JOINT RightFoot
				{
					OFFSET -2.568260 -7.056230 0.000000
					CHANNELS 3 Zrotation Yrotation Xrotation
					JOINT RightToeBase
					{
						OFFSET -0.164730 -0.452590 2.363150
						CHANNELS 3 Zrotation Yrotation Xrotation
						End Site
						{
							OFFSET 0.000000 0.000000 0.000000
						}
					}
				}
			}
		}
	}
	JOINT LowerBack
	{
		OFFSET 0.000000 0.000000 0.000000
		CHANNELS 3 Zrotation Yrotation Xrotation
		JOINT Spine
		{
			OFFSET 0.028270 2.035590 -0.193380
			CHANNELS 3 Zrotation Yrotation Xrotation
			JOINT Spine1
			{
				OFFSET 0.056720 2.048850 -0.042750
				CHANNELS 3 Zrotation Yrotation Xrotation
				JOINT Neck
				{
					OFFSET 0.000000 0.000000 0.000000
					CHANNELS 3 Zrotation Yrotation Xrotation
					JOINT Neck1
					{
						OFFSET -0.054170 1.746240 0.172020
						CHANNELS 3 Zrotation Yrotation Xrotation
						JOINT Head
						{
							OFFSET 0.104070 1.761360 -0.123970
							CHANNELS 3 Zrotation Yrotation Xrotation
							End Site
							{
								OFFSET 0.000000 0.000000 0.000000
							}
						}
					}
				}
				JOINT LeftShoulder
				{
					OFFSET 0.000000 0.000000 0.000000
					CHANNELS 3 Zrotation Yrotation Xrotation
					JOINT LeftArm
					{
						OFFSET 3.362410 1.200890 -0.311210
						CHANNELS 3 Zrotation Yrotation Xrotation
						JOINT LeftForeArm
						{
							OFFSET 4.983000 -0.000000 -0.000000
							CHANNELS 3 Zrotation Yrotation Xrotation
							JOINT LeftHand
							{
								OFFSET 3.483560 -0.000000 -0.000000
								CHANNELS 3 Zrotation Yrotation Xrotation
								JOINT LeftFingerBase
								{
									OFFSET 0.000000 0.000000 0.000000
									CHANNELS 3 Zrotation Yrotation Xrotation
									JOINT LeftHandIndex1
									{
										OFFSET 0.715260 -0.000000 -0.000000
										CHANNELS 3 Zrotation Yrotation Xrotation
										End Site
										{
											OFFSET 0.000000 0.000000 0.000000
										}
									}
								}
								JOINT LThumb
								{
									OFFSET 0.000000 0.000000 0.000000
									CHANNELS 3 Zrotation Yrotation Xrotation
									End Site
									{
										OFFSET 0.000000 0.000000 0.000000
									}
								}
							}
						}
					}
				}
				JOINT RightShoulder
				{
					OFFSET 0.000000 0.000000 0.000000
					CHANNELS 3 Zrotation Yrotation Xrotation
					JOINT RightArm
					{
						OFFSET -3.136600 1.374050 -0.404650
						CHANNELS 3 Zrotation Yrotation Xrotation
						JOINT RightForeArm
						{
							OFFSET -5.241900 -0.000000 -0.000000
							CHANNELS 3 Zrotation Yrotation Xrotation
							JOINT RightHand
							{
								OFFSET -3.444170 -0.000000 -0.000000
								CHANNELS 3 Zrotation Yrotation Xrotation
								JOINT RightFingerBase
								{
									OFFSET 0.000000 0.000000 0.000000
									CHANNELS 3 Zrotation Yrotation Xrotation
									JOINT RightHandIndex1
									{
										OFFSET -0.622530 -0.000000 -0.000000
										CHANNELS 3 Zrotation Yrotation Xrotation
										End Site
										{
											OFFSET 0.000000 0.000000 0.000000
										}
									}
								}
								JOINT RThumb
								{
									OFFSET 0.000000 0.000000 0.000000
									CHANNELS 3 Zrotation Yrotation Xrotation
									End Site
									{
										OFFSET 0.000000 0.000000 0.000000
									}
								}
							}
						}
					}
				}
			}
		}
	}
}
MOTION
Frames: 11
Frame Time: 0.008333
2.197598 15.645498 -1.183654 84.279737 -76.108859 -33.972991 -7.177540 0.726922 9.611977 1.788768 -32.122182 -131.701923 -9.723860 0.143517 10.749166 -1.749058 -1.189421 14.173721 1.768800 -0.000000 -47.567100 8.304796 4.655291 -3.989699 8.030562 -7.101280 -85.108780 2.267045 -6.852863 58.393833 -2.059433 -2.601326 -23.149088 1.026100 -0.000000 -48.694700 -3.979698 -2.465712 1.845280 -1.418364 -2.284197 -2.564380 -4.868504 -2.240861 0.522150 10.683654 -16.636386 -10.752534 -1.570963 -0.032318 -1.436044 0.000000 0.000000 0.000000 10.829824 11.172185 2.167318 -74.514276 17.760169 9.938485 -0.055647 -87.057891 -0.007114 1.774955 2.184246 0.031852 -0.043861 0.230823 -0.000000 0.000000 0.000000 0.000000 0.000000 0.000000 0.000000 7.434446 -11.543571 -0.191763 69.485854 -0.126732 14.288273 179.464068 69.959980 179.914642 -11.592033 3.417007 -0.408611 0.284074 -0.526841 0.000000 0.000000 0.000000 0.000000 0.000000 0.000000 0.000000 
2.207481 15.626464 -1.178455 84.133638 -75.986796 -33.781880 -7.151172 0.745603 9.455112 0.663848 -32.575875 -130.230312 -9.647070 0.142958 10.640602 -1.701351 -0.820459 14.888468 1.930500 -0.000000 -46.924200 8.283101 4.668589 -3.945528 7.780147 -7.037488 -85.323417 2.198737 -6.868150 58.718562 -2.114774 -2.806628 -23.314508 1.074100 0.000000 -48.455300 -3.906402 -2.484683 1.960649 -1.402026 -2.305739 -2.550437 -4.848057 -2.262668 0.447539 10.597651 -16.481329 -10.663097 -1.607914 -0.036496 -1.417721 0.000000 0.000000 0.000000 10.657955 10.878286 2.173879 -74.516140 17.317633 9.741108 -0.053371 -87.106824 -0.007872 1.921393 2.146165 0.033665 -0.045433 0.235740 -0.000000 0.000000 0.000000 0.000000 0.000000 0.000000 0.000000 7.450866 -11.417052 -0.167636 69.419847 0.113634 14.209974 179.468055 70.060249 179.913723 -11.694164 3.408643 -0.411327 0.285916 -0.527032 0.000000 0.000000 0.000000 0.000000 0.000000 0.000000 0.000000 
2.215983 15.611525 -1.172028 84.084115 -75.925571 -33.693529 -7.110497 0.718864 9.329512 -0.186453 -32.707480 -128.663616 -9.484315 0.070556 10.339294 -1.611821 -0.329335 15.531614 2.147000 -0.000000 -46.203500 8.260305 4.681053 -3.909422 7.543517 -6.912291 -85.456068 2.133368 -6.866675 58.968916 -2.173319 -3.033390 -23.450534 1.123399 -0.000000 -48.203001 -3.810042 -2.491516 2.049547 -1.381250 -2.315881 -2.542449 -4.830652 -2.273355 0.372824 10.528810 -16.347569 -10.591587 -1.640979 -0.040082 -1.404056 0.000000 0.000000 0.000000 10.501625 10.588430 2.181187 -74.532096 16.886273 9.545269 -0.051153 -87.154682 -0.008783 2.096303 2.110635 0.035879 -0.047336 0.240607 -0.000000 0.000000 0.000000 0.000000 0.000000 0.000000 0.000000 7.473413 -11.301668 -0.136594 69.347019 0.359312 14.129286 179.470958 70.175264 179.912649 -11.816787 3.387316 -0.413439 0.288470 -0.526988 0.000000 0.000000 0.000000 0.000000 0.000000 0.000000 0.000000 
2.222788 15.600557 -1.164156 84.132275 -75.928421 -33.713391 -7.062066 0.657213 9.222851 -0.790044 -32.567238 -127.051623 -9.251215 -0.039704 9.961423 -1.494507 0.218593 16.057209 2.388100 0.000000 -45.549600 8.237733 4.686984 -3.874520 7.335513 -6.727747 -85.515405 2.072807 -6.849865 59.145364 -2.232050 -3.268562 -23.550869 1.171200 0.000000 -47.967000 -3.690280 -2.487146 2.111846 -1.355547 -2.315464 -2.539830 -4.815208 -2.273770 0.300508 10.474375 -16.234677 -10.535885 -1.669000 -0.043039 -1.394121 0.000000 0.000000 0.000000 10.363674 10.311481 2.187940 -74.562026 16.475923 9.357591 -0.048825 -87.206777 -0.009865 2.302121 2.081557 0.038595 -0.049633 0.245326 -0.000000 0.000000 0.000000 0.000000 0.000000 0.000000 0.000000 7.493911 -11.198021 -0.101100 69.270126 0.610725 14.055702 179.473533 70.307085 179.911394 -11.964049 3.351890 -0.414747 0.291792 -0.526645 0.000000 0.000000 0.000000 0.000000 0.000000 0.000000 0.000000 
2.227395 15.593174 -1.154451 84.232763 -75.994502 -33.800673 -7.014669 0.573874 9.125669 -1.194085 -32.227007 -125.440561 -8.961850 -0.149179 9.643349 -1.360383 0.774658 16.433317 2.629600 -0.000000 -45.050699 8.215259 4.677417 -3.834120 7.179407 -6.493565 -85.517106 2.020273 -6.821134 59.251001 -2.287669 -3.496026 -23.613038 1.214300 -0.000000 -47.778500 -3.539049 -2.475599 2.143055 -1.322416 -2.308779 -2.543593 -4.800954 -2.268293 0.231952 10.429661 -16.132759 -10.490939 -1.691801 -0.045480 -1.385906 0.000000 0.000000 0.000000 10.242913 10.053778 2.193518 -74.603990 16.102647 9.184733 -0.046129 -87.272154 -0.011109 2.535223 2.060958 0.041810 -0.052349 0.249823 -0.000000 0.000000 0.000000 0.000000 0.000000 0.000000 0.000000 7.502702 -11.097891 -0.064790 69.189539 0.853421 13.993414 179.476731 70.452245 179.909979 -12.134578 3.302835 -0.415351 0.295751 -0.525932 0.000000 0.000000 0.000000 0.000000 0.000000 0.000000 0.000000 
2.229790 15.589101 -1.143194 84.401910 -76.115329 -33.976564 -6.975172 0.486747 9.024294 -1.489508 -31.762261 -123.843910 -8.634786 -0.225865 9.498515 -1.217080 1.308275 16.643414 2.854400 0.000000 -44.749400 8.195212 4.651017 -3.781100 7.071264 -6.217395 -85.469206 1.975394 -6.781513 59.291068 -2.338842 -3.708814 -23.638257 1.251299 0.000000 -47.628299 -3.366797 -2.459527 2.148180 -1.283936 -2.298167 -2.551774 -4.787402 -2.259114 0.170507 10.394804 -16.049089 -10.457214 -1.708298 -0.047306 -1.379412 0.000000 0.000000 0.000000 10.144371 9.822028 2.196468 -74.652257 15.768431 9.036806 -0.042870 -87.357005 -0.012474 2.786921 2.050079 0.045527 -0.055370 0.254038 -0.000000 0.000000 0.000000 0.000000 0.000000 0.000000 0.000000 7.497291 -11.011179 -0.029052 69.110945 1.097429 13.954898 179.480407 70.612976 179.908437 -12.324836 3.241921 -0.415050 0.300291 -0.524877 0.000000 0.000000 0.000000 0.000000 0.000000 0.000000 0.000000 
2.229790 15.587977 -1.130371 84.616321 -76.281799 -34.221779 -6.949753 0.410771 8.909219 -1.769016 -31.247887 -122.273345 -8.287102 -0.242970 9.631038 -1.069445 1.802613 16.680088 3.052300 0.000000 -44.619500 8.178154 4.604025 -3.710642 7.016054 -5.912326 -85.381932 1.939184 -6.733562 59.271802 -2.384015 -3.898248 -23.629585 1.280800 0.000000 -47.525499 -3.175130 -2.442984 2.129087 -1.240117 -2.287730 -2.563795 -4.774479 -2.250252 0.117939 10.367648 -15.983090 -10.433065 -1.718227 -0.048535 -1.373934 0.000000 0.000000 0.000000 10.068479 9.620038 2.196190 -74.700771 15.478413 8.922057 -0.038812 -87.469299 -0.013895 3.043767 2.048301 0.049445 -0.058546 0.257953 -0.000000 0.000000 0.000000 0.000000 0.000000 0.000000 0.000000 7.472659 -10.939570 0.004057 69.038689 1.339432 13.944842 179.484559 70.783673 179.906840 -12.525758 3.173854 -0.414046 0.305171 -0.523574 0.000000 0.000000 0.000000 0.000000 0.000000 0.000000 0.000000 
2.227074 15.589229 -1.116026 84.835750 -76.481822 -34.495268 -6.941780 0.356633 8.777930 -2.105532 -30.743239 -120.737857 -7.932018 -0.186940 10.102774 -0.916912 2.268711 16.553214 3.227800 -0.000000 -44.595800 8.164560 4.533363 -3.618919 7.019411 -5.594908 -85.270736 1.913039 -6.680747 59.200851 -2.421644 -4.055324 -23.591413 1.301700 0.000000 -47.477600 -2.964294 -2.431242 2.081921 -1.190656 -2.282975 -2.580935 -4.762607 -2.247241 0.074503 10.346596 -15.926185 -10.414621 -1.722469 -0.049327 -1.367997 0.000000 0.000000 0.000000 10.013887 9.447365 2.192820 -74.742871 15.242748 8.844488 -0.033658 -87.619303 -0.015288 3.289524 2.052045 0.053364 -0.061710 0.261590 -0.000000 0.000000 0.000000 0.000000 0.000000 0.000000 0.000000 7.426702 -10.876519 0.032324 68.973417 1.564207 13.962081 179.489029 70.953970 179.905297 -12.724084 3.103550 -0.412537 0.310053 -0.522105 0.000000 0.000000 0.000000 0.000000 0.000000 0.000000 0.000000 
2.221878 15.592607 -1.100449 85.060993 -76.705588 -34.804343 -6.951768 0.332269 8.619208 -2.588491 -30.285670 -119.222402 -7.580804 -0.049498 10.956077 -0.758698 2.714173 16.270037 3.382200 0.000000 -44.580400 8.155064 4.440614 -3.504963 7.071591 -5.274524 -85.132455 1.895713 -6.623637 59.084318 -2.452219 -4.181627 -23.528812 1.314700 -0.000000 -47.479600 -2.741601 -2.425944 2.017672 -1.137318 -2.285315 -2.600356 -4.752006 -2.251276 0.041338 10.331041 -15.886651 -10.403565 -1.720728 -0.049606 -1.362308 0.000000 0.000000 0.000000 9.981635 9.304149 2.185870 -74.772039 15.055270 8.809287 -0.027246 -87.810959 -0.016559 3.507063 2.058157 0.056883 -0.064591 0.264996 -0.000000 0.000000 0.000000 0.000000 0.000000 0.000000 0.000000 7.359046 -10.831618 0.055999 68.920391 1.779310 14.009633 179.493049 71.120670 179.903911 -12.905903 3.037822 -0.410625 0.314646 -0.520656 0.000000 0.000000 0.000000 0.000000 0.000000 0.000000 0.000000 
2.214206 15.597798 -1.083820 85.266790 -76.943607 -35.124566 -6.977649 0.339103 8.429678 -3.258353 -29.887482 -117.720289 -7.236534 0.165856 12.191870 -0.589035 3.169223 15.845006 3.528600 0.000000 -44.460901 8.149558 4.326726 -3.368660 7.167811 -4.960911 -84.970597 1.886787 -6.563711 58.928856 -2.476412 -4.278501 -23.448726 1.320800 0.000000 -47.523600 -2.509048 -2.429633 1.939818 -1.080603 -2.297322 -2.621492 -4.743248 -2.264865 0.017740 10.319910 -15.862146 -10.398697 -1.713802 -0.049455 -1.356586 0.000000 0.000000 0.000000 9.969695 9.186960 2.175750 -74.782849 14.916010 8.816030 -0.019361 -88.049575 -0.017618 3.680313 2.061422 0.059702 -0.066958 0.268255 -0.000000 0.000000 0.000000 0.000000 0.000000 0.000000 0.000000 7.269904 -10.803109 0.074767 68.880676 1.977303 14.083252 179.496053 71.273986 179.902794 -13.056352 2.982709 -0.408911 0.318610 -0.519387 0.000000 0.000000 0.000000 0.000000 0.000000 0.000000 0.000000 
2.204269 15.604580 -1.066292 85.433563 -77.188626 -35.437607 -7.015211 0.373771 8.206434 -4.125543 -29.537792 -116.223799 -6.896967 0.448954 13.784961 -0.401082 3.665355 15.288778 3.678799 0.000000 -44.126101 8.147621 4.194310 -3.211494 7.299146 -4.660217 -84.783650 1.885022 -6.501506 58.739695 -2.495983 -4.352807 -23.357437 1.321900 0.000000 -47.602900 -2.268764 -2.443370 1.854226 -1.021193 -2.320001 -2.643055 -4.736883 -2.288916 0.002824 10.312248 -15.853721 -10.400101 -1.702375 -0.048913 -1.351083 0.000000 0.000000 0.000000 9.976588 9.091257 2.162792 -74.772527 14.820428 8.861212 -0.009833 -88.337385 -0.018388 3.796495 2.057037 0.061221 -0.068587 0.271467 -0.000000 0.000000 0.000000 0.000000 0.000000 0.000000 0.000000 7.160381 -10.792049 0.089086 68.855611 2.155397 14.177218 179.497432 71.405917 179.902036 -13.162514 2.944333 -0.407594 0.321658 -0.518478 0.000000 0.000000 0.000000 0.000000 0.000000 0.000000 0.000000 
